<svg id="Capa_1" enable-background="new 0 0 512 512" height="64" viewBox="0 0 512 512" width="64" xmlns="http://www.w3.org/2000/svg"><g><path d="m69.572 130.628c16.765-7.765 36.448 1.713 40.83 19.663.639 2.619 2.398 4.825 4.81 6.031 16.524 8.266 21.385 29.564 10.084 44.181-1.649 2.133-2.277 4.883-1.716 7.52 3.84 18.073-9.781 35.153-28.255 35.431-2.696.04-5.237 1.265-6.95 3.347-11.736 14.27-33.582 14.27-45.318 0-1.712-2.082-4.254-3.306-6.95-3.347-18.474-.278-32.095-17.358-28.255-35.431.56-2.637-.067-5.387-1.717-7.52-11.301-14.617-6.44-35.915 10.084-44.181 2.411-1.206 4.17-3.412 4.81-6.031 4.382-17.949 24.065-27.428 40.83-19.663 2.445 1.133 5.266 1.133 7.713 0z" fill="#a2ddfd"/><path d="m424.064 361.209 47.348-44.232c-7.482-103.228-84.799-226.817-200.36-226.817s-192.878 123.589-200.36 226.817l47.349 44.232z" fill="#fbf1cf"/><path d="m424.064 361.209 47.348-44.232c-7.482-103.228-84.799-226.817-200.36-226.817s-192.878 123.589-200.36 226.817l47.349 44.232z" fill="#fbf1cf"/><path d="m244.184 350.52c-81.617-10.033-126.349-140.916-80.491-219.928-54.358 44.912-88.18 119.871-93.001 186.385l47.349 44.232h144.734c6.027-4.329 2.117-8.143-18.591-10.689z" fill="#f7dfb7"/><path d="m271.052 90.16c-119.196 0-186.585 38.719-209.987 95.96-18.284 44.723 86.985 61.14 136.661 61.14z" fill="#7c93dd"/><path d="m271.053 267.219c63.61 0 132.765-43.384 185.723-19.49-28.551-82.191-95.475-157.569-185.724-157.569s-157.173 75.379-185.724 157.569c52.959-23.895 122.114 19.49 185.725 19.49z" fill="#8eafe2"/><path d="m163.703 130.576c-35.887 29.646-62.824 72.387-78.374 117.154 19.556-8.824 41.321-8.469 64.199-4.517-8.285-38.267-4.832-79.901 14.175-112.637z" fill="#7c93dd"/><path d="m271.053 421.84c-96.004 0-155.467-15.411-208.145-31.195-24.332-7.292-38.147-32.928-30.857-57.262 7.293-24.333 32.925-38.147 57.263-30.857 48.053 14.4 98.113 27.325 181.739 27.325 83.628 0 133.685-12.925 181.737-27.324 24.331-7.292 49.971 6.523 57.262 30.856s-6.523 49.971-30.857 57.262c-52.675 15.784-112.137 31.195-208.142 31.195z" fill="#a2ddfd"/><g fill="#cde9fa"><path d="m263.553 329.814v91.988c2.48.021 4.97.038 7.5.038s5.02-.017 7.5-.038v-91.988c-2.471.023-4.968.036-7.5.036-2.532.001-5.029-.012-7.5-.036z"/><path d="m152.468 318.875c-5.115-1.039-10.101-2.131-14.98-3.267-11.626 26.456-18.729 63.215-13.734 91.215 5.239 1.158 10.603 2.274 16.114 3.339-6.444-23.536-1.08-62.305 12.6-91.287z"/><path d="m402.237 410.161c5.512-1.064 10.876-2.181 16.114-3.339 4.98-27.922-2.046-64.64-13.732-91.215-4.88 1.137-9.867 2.229-14.982 3.267 13.681 28.983 19.044 67.752 12.6 91.287z"/></g><g><g><ellipse cx="184.675" cy="209.963" fill="#fff" rx="31.872" ry="25.381"/><ellipse cx="357.429" cy="209.963" fill="#fff" rx="31.872" ry="25.381"/><ellipse cx="271.052" cy="190.461" fill="#4e5660" rx="16.918" ry="18.931"/></g><g fill="#4e5660"><path d="m221.242 186.635c-4.143 0-7.5-3.358-7.5-7.5 0-3.684-2.997-6.681-6.681-6.681s-6.68 2.997-6.68 6.681c0 4.142-3.357 7.5-7.5 7.5s-7.5-3.358-7.5-7.5c0-11.955 9.726-21.681 21.68-21.681 11.955 0 21.681 9.726 21.681 21.681 0 4.142-3.357 7.5-7.5 7.5z"/><path d="m348.001 186.635c-4.143 0-7.5-3.358-7.5-7.5 0-3.684-2.997-6.681-6.681-6.681s-6.681 2.997-6.681 6.681c0 4.142-3.357 7.5-7.5 7.5-4.142 0-7.5-3.358-7.5-7.5 0-11.955 9.726-21.681 21.681-21.681s21.681 9.726 21.681 21.681c0 4.142-3.357 7.5-7.5 7.5z"/></g></g></g></svg>